<svg xmlns="http://www.w3.org/2000/svg" width="65.2" height="48.921" viewBox="0 0 65.2 48.921"><defs><style>.a{fill:#0078ff;}</style></defs><g transform="translate(0 -65.225)"><g transform="translate(0 65.225)"><path class="a" d="M206.935,65.885l-2.21-.606a1,1,0,0,0-.837.089,1.159,1.159,0,0,0-.553.695l-13.29,46a1.067,1.067,0,0,0,.089.873,1.157,1.157,0,0,0,.695.552l2.209.606a.992.992,0,0,0,.837-.089,1.16,1.16,0,0,0,.552-.694l13.29-46a1.068,1.068,0,0,0-.089-.873A1.156,1.156,0,0,0,206.935,65.885Z" transform="translate(-166.282 -65.225)"/><path class="a" d="M20.736,121.723a1.127,1.127,0,0,0-.356-.82L18.6,119.122a1.12,1.12,0,0,0-1.639,0l-16.6,16.6a1.12,1.12,0,0,0,0,1.639l16.6,16.6a1.121,1.121,0,0,0,1.639,0l1.782-1.781a1.12,1.12,0,0,0,0-1.639l-14-14,14-14A1.125,1.125,0,0,0,20.736,121.723Z" transform="translate(0 -112.084)"/><path class="a" d="M376.691,135.721l-16.6-16.6a1.12,1.12,0,0,0-1.639,0l-1.781,1.781a1.122,1.122,0,0,0,0,1.639l14,14-14,14a1.122,1.122,0,0,0,0,1.639l1.781,1.781a1.121,1.121,0,0,0,1.639,0l16.6-16.6a1.121,1.121,0,0,0,0-1.639Z" transform="translate(-311.847 -112.081)"/></g></g></svg>