<svg xmlns="http://www.w3.org/2000/svg" width="58.4" height="58.4" viewBox="0 0 58.4 58.4"><defs><style>.a{fill:#0078ff;}</style></defs><path class="a" d="M56.689,0H49.845a1.711,1.711,0,0,0-1.711,1.711V3.422h-14.1a5.132,5.132,0,0,0-9.677,0h-14.1V1.711A1.711,1.711,0,0,0,8.555,0H1.711A1.711,1.711,0,0,0,0,1.711V8.555a1.711,1.711,0,0,0,1.711,1.711H8.555a1.711,1.711,0,0,0,1.711-1.711V6.821h7.115A22.478,22.478,0,0,0,7,24.346a5.131,5.131,0,1,0,3.429.034A19.1,19.1,0,0,1,24.6,7.412a5.13,5.13,0,0,0,9.194,0A19.1,19.1,0,0,1,47.967,24.38a5.135,5.135,0,1,0,3.429-.034A22.438,22.438,0,0,0,41.02,6.844h7.115V8.555a1.711,1.711,0,0,0,1.711,1.711h6.844A1.711,1.711,0,0,0,58.4,8.555V1.711A1.711,1.711,0,0,0,56.689,0ZM6.844,6.844H3.422V3.422H6.844ZM8.669,30.911A1.711,1.711,0,1,1,10.38,29.2,1.713,1.713,0,0,1,8.669,30.911ZM29.2,6.844a1.711,1.711,0,1,1,1.711-1.711A1.713,1.713,0,0,1,29.2,6.844ZM49.731,27.489A1.711,1.711,0,1,1,48.02,29.2,1.713,1.713,0,0,1,49.731,27.489ZM54.978,6.844H51.556V3.422h3.422Z"/><g transform="translate(13.802 13.803)"><path class="a" d="M151.51,142.3l-13.687-20.531v0l-.015-.021c-.023-.034-.048-.067-.074-.1a1.711,1.711,0,0,0-2.739.1l-.015.021v0L121.288,142.3a1.711,1.711,0,0,0,.214,2.159,21.676,21.676,0,0,1,6.178,12.65,8.814,8.814,0,0,0-.765.694,8.672,8.672,0,0,0-2.492,6.092,1.711,1.711,0,0,0,1.711,1.711h20.531a1.711,1.711,0,0,0,1.711-1.711,8.673,8.673,0,0,0-2.492-6.092,8.814,8.814,0,0,0-.765-.694,21.674,21.674,0,0,1,6.178-12.65A1.711,1.711,0,0,0,151.51,142.3ZM136.4,141.54a1.711,1.711,0,1,1-1.711,1.711A1.713,1.713,0,0,1,136.4,141.54Zm-8.263,20.645a5.226,5.226,0,0,1,4.841-3.536h6.844a5.226,5.226,0,0,1,4.841,3.536Zm13.766-6.7a8.406,8.406,0,0,0-2.081-.26h-6.844a8.4,8.4,0,0,0-2.081.261,25.107,25.107,0,0,0-6.005-12.421l9.8-14.7v10.042a5.133,5.133,0,1,0,3.422,0V128.371l9.8,14.7A25.1,25.1,0,0,0,141.9,155.488Z" transform="translate(-121 -121.01)"/></g></svg>