<svg xmlns="http://www.w3.org/2000/svg" width="763.6" height="764.431" viewBox="0 0 763.6 764.431"><defs><style>.a{opacity:0.02;}.b{fill:#fff;}</style></defs><g class="a" transform="translate(-0.012 0)"><g transform="translate(0.012 0)"><path class="b" d="M659.4,560.583a171.211,171.211,0,0,0-.306-64.976l58.351-140.82a2.065,2.065,0,0,0,0-.28A239.263,239.263,0,0,1,758.41,283.39a19,19,0,0,0,4.7-17.391L739.185,162.674a12.457,12.457,0,0,0-1.274-3.083c-.1-.191-.14-.42-.242-.6s-.548-.612-.8-.943a12.851,12.851,0,0,0-1.8-2.1,11.842,11.842,0,0,0-1.389-.841,12.976,12.976,0,0,0-1.975-1.2,12.585,12.585,0,0,0-2.981-.726c-.293,0-.548-.191-.841-.217a12.732,12.732,0,0,0-7.02,1.567c-.191.1-.42.14-.612.255h-.127l-89.96,56.147a19.01,19.01,0,0,0-8.995,15.671,239.145,239.145,0,0,1-21.417,79.411v.14L570.591,376.65a170.912,170.912,0,0,0-45.509-16.435,688.336,688.336,0,0,0,6.6-125.277A139.049,139.049,0,0,0,563.3,132.862C555.341,58.61,488.237,4.986,485.37,2.731a12.74,12.74,0,0,0-20.194,13.288c6.561,24.64.879,50.643-47.586,104.115a74.558,74.558,0,0,0-17.467,81.246,98.905,98.905,0,0,0,18.142,29.3c-3.083,19.684-5.5,38.323-7.173,56.478a638.041,638.041,0,0,0-2.217,90.355,173.355,173.355,0,0,0-31.724,22.1L315.362,135.384c0-.268-.255-.459-.331-.7a12.048,12.048,0,0,0-.892-2.459L251.022,15.662a29.418,29.418,0,0,0-55.268,12.944l-4.79,132.437a13.161,13.161,0,0,0,.319,2.841v.573l63.04,269.04a143.472,143.472,0,0,0-29.456,4.4L155.52,270.42a25.749,25.749,0,0,0-33.253-13.62L16.28,300.679a25.557,25.557,0,0,0-13.8,33.291l94.05,226.882a101.86,101.86,0,0,0,5.249,203.579H662.36A101.934,101.934,0,1,0,659.4,560.583ZM646.422,230.81l53.408-33.329-18.907,45.662a12.743,12.743,0,1,0,23.544,9.759l18.907-45.662,14.155,61.32a251.978,251.978,0,0,0-36.947,60.988,52.4,52.4,0,0,1-71.219-29.456A251.675,251.675,0,0,0,646.422,230.81Zm-29.3,100.025a77.605,77.605,0,0,0,31.762,23.124,80.856,80.856,0,0,0,31.176,6.574,67.386,67.386,0,0,0,7.721-.471l-40.655,98.1a172.909,172.909,0,0,0-54.707-67.639ZM442.575,239.843l64.008,3.911c.4,11.9.255,24.207-.14,36.705a267.827,267.827,0,0,1-63.83-3.083c-1.605-.229-3.172-.408-4.765-.624,1.274-12,2.828-24.156,4.7-36.909Zm-6.077-102.6c33.826-37.317,51.357-66.021,55.434-93.005a170.4,170.4,0,0,1,45.98,91.323,114.155,114.155,0,0,1-25.787,82.966q-37.749-2.293-74.672-4.587a53.142,53.142,0,0,1-.981-76.7Zm-.968,164.9,3.695.484a362.912,362.912,0,0,0,49.6,4.217c5.275,0,10.829-.42,16.4-.854-1.159,16.4-3.058,33.52-5.466,51.216-3.147-.166-6.23-.471-9.39-.471a170.635,170.635,0,0,0-56.466,9.721,614.766,614.766,0,0,1,1.605-64.314ZM336.982,451.13l-36.45-155.268a12.74,12.74,0,0,0-24.806,5.81l32.756,139.75a144.3,144.3,0,0,0-27.774-6.918L224.79,195.876a60.378,60.378,0,0,0,24.946,5.427c.8,0,1.656-.115,2.472-.153l9.007,38.463a12.74,12.74,0,1,0,24.806-5.81L277,195.315a60.337,60.337,0,0,0,22.258-16.945l56.848,243.075A170.929,170.929,0,0,0,336.982,451.13ZM259.138,174.663a42.3,42.3,0,0,1-42.54-17.034l1.618-44.872a74.971,74.971,0,0,0,13.441,1.274,56.769,56.769,0,0,0,12.944-1.44,64.9,64.9,0,0,0,23.621-11.747l21.455,39.6a42.259,42.259,0,0,1-30.539,34.246Zm-34.9-148.834a3.975,3.975,0,0,1,4.383,1.962L255.94,78.307a43.475,43.475,0,0,1-17.2,9.555,43.317,43.317,0,0,1-19.633-.93l2.077-57.408A3.948,3.948,0,0,1,224.242,25.829Zm-92.2,254.465,9.734,23.519-47.14,19.518a12.74,12.74,0,0,0,4.905,24.487,12.925,12.925,0,0,0,4.88-.968l47.14-19.531,9.746,23.544-23.583,9.772a12.74,12.74,0,0,0,4.892,24.513,12.962,12.962,0,0,0,4.867-.968l23.583-9.772,9.746,23.544-47.178,19.557a12.74,12.74,0,0,0,4.892,24.513,12.909,12.909,0,0,0,4.867-.968l47.14-19.518,10.307,24.882a147.9,147.9,0,0,0-82.494,100.407L26,324.172ZM662.36,738.95H101.781a76.443,76.443,0,1,1,0-152.885,75.045,75.045,0,0,1,21.8,3.16A12.74,12.74,0,0,0,140,577.261a121.034,121.034,0,0,1,193.655-94.394,12.741,12.741,0,0,0,19.531-5.733,146.546,146.546,0,0,1,277.257,94.585,12.74,12.74,0,0,0,14.906,16.206,79.541,79.541,0,0,1,17.008-1.86,76.443,76.443,0,1,1,0,152.885Z" transform="translate(-0.012 0)"/><path class="b" d="M50.355,98.446a12.74,12.74,0,0,0,10.192-5.032A95.557,95.557,0,0,0,77.492,18.4a12.74,12.74,0,1,0-24.614,6.561A70.773,70.773,0,0,1,40.239,78.036,12.741,12.741,0,0,0,50.432,98.42Z" transform="translate(442.354 101.584)"/><path class="b" d="M189.88,69.015a62.626,62.626,0,0,0-27.328,6.37A76.443,76.443,0,0,0,30.5,150.427a12.741,12.741,0,0,0,11.721,7.746,12.6,12.6,0,0,0,4.994-1.019,12.741,12.741,0,0,0,6.727-16.715,51.894,51.894,0,0,1-4.2-20.461A50.962,50.962,0,0,1,100.7,69.015a50.452,50.452,0,0,1,46.057,29.3,13.837,13.837,0,0,0,.892,1.2,12.943,12.943,0,0,0,.675,1.274c.229.28.561.408.815.675a17.894,17.894,0,0,0,4.013,2.93,12.689,12.689,0,0,0,2.293.713,11.719,11.719,0,0,0,2.4.369,15.654,15.654,0,0,0,4.867-.815,9.717,9.717,0,0,0,1.007-.242,11.538,11.538,0,0,0,1.185-.879,13.245,13.245,0,0,0,1.338-.688A37.571,37.571,0,0,1,189.88,94.5a38.221,38.221,0,0,1,34.654,22.232,12.743,12.743,0,0,0,23.188-10.575A63.7,63.7,0,0,0,189.88,69.015Z" transform="translate(286.075 517.049)"/><path class="b" d="M60.936,39.713C59.012,40.338,14,55.906,14,102.766a12.74,12.74,0,1,0,25.481,0,43.8,43.8,0,0,1,29.583-38.9,12.768,12.768,0,1,0-8.128-24.207Z" transform="translate(164.211 457.818)"/><path class="b" d="M40.647,108.06a12.439,12.439,0,0,0,3.1.382A12.741,12.741,0,0,0,56.088,98.8a54.34,54.34,0,0,1,51.42-41.317A12.74,12.74,0,0,0,107.445,32a79.36,79.36,0,0,0-76.06,60.606A12.74,12.74,0,0,0,40.647,108.06Z" transform="translate(363.797 375.699)"/></g></g></svg>