<svg xmlns="http://www.w3.org/2000/svg" width="867.2" height="868.144" viewBox="0 0 867.2 868.144"><defs><style>.a{opacity:0.02;}.b{fill:#2e2e2e;}</style></defs><g class="a" transform="translate(-0.012 0)"><g transform="translate(0.012 0)"><path class="b" d="M748.866,636.64a194.438,194.438,0,0,0-.347-73.792l66.268-159.926a2.347,2.347,0,0,0,0-.318A271.724,271.724,0,0,1,861.3,321.838a21.575,21.575,0,0,0,5.339-19.75L839.471,184.745a14.145,14.145,0,0,0-1.447-3.5c-.116-.217-.159-.477-.275-.68s-.622-.695-.912-1.071a14.6,14.6,0,0,0-2.04-2.387,13.454,13.454,0,0,0-1.577-.955,14.737,14.737,0,0,0-2.243-1.36,14.293,14.293,0,0,0-3.386-.825c-.333,0-.622-.217-.955-.246a14.46,14.46,0,0,0-7.972,1.78c-.217.116-.477.159-.694.289h-.145L715.66,239.553a21.589,21.589,0,0,0-10.215,17.8,271.594,271.594,0,0,1-24.322,90.185v.159L648,427.751a194.1,194.1,0,0,0-51.683-18.665,781.723,781.723,0,0,0,7.495-142.273,157.914,157.914,0,0,0,35.912-115.925C630.684,66.562,554.476,5.662,551.22,3.1a14.469,14.469,0,0,0-22.933,15.091c7.451,27.983,1,57.514-54.042,118.24A84.674,84.674,0,0,0,454.408,228.7a112.325,112.325,0,0,0,20.6,33.279c-3.5,22.355-6.251,43.523-8.146,64.141a724.6,724.6,0,0,0-2.518,102.614,196.876,196.876,0,0,0-36.028,25.1L358.146,153.752c0-.3-.289-.521-.376-.8a13.684,13.684,0,0,0-1.013-2.792L285.078,17.787a33.409,33.409,0,0,0-62.766,14.7l-5.44,150.4a14.944,14.944,0,0,0,.362,3.227v.651l71.592,305.541a162.939,162.939,0,0,0-33.452,4.992L176.618,307.109a29.243,29.243,0,0,0-37.764-15.467L18.487,341.473A29.025,29.025,0,0,0,2.817,379.28l106.81,257.664a115.679,115.679,0,0,0,5.961,231.2H752.223a115.764,115.764,0,1,0-3.357-231.5ZM734.122,262.125l60.654-37.851L773.3,276.131a14.472,14.472,0,1,0,26.739,11.083l21.472-51.857L837.59,305a286.165,286.165,0,0,0-41.96,69.263,59.51,59.51,0,0,1-80.882-33.452A285.823,285.823,0,0,0,734.122,262.125Zm-33.279,113.6a88.134,88.134,0,0,0,36.071,26.261,91.827,91.827,0,0,0,35.406,7.466,76.54,76.54,0,0,0,8.768-.535l-46.17,111.411a196.368,196.368,0,0,0-62.13-76.816ZM502.619,272.383l72.692,4.442c.449,13.514.289,27.491-.159,41.685a304.163,304.163,0,0,1-72.49-3.5c-1.823-.26-3.6-.463-5.411-.709,1.447-13.63,3.212-27.433,5.339-41.917Zm-6.9-116.519c38.415-42.38,58.324-74.978,62.955-105.623A193.514,193.514,0,0,1,610.89,153.955,129.642,129.642,0,0,1,581.6,248.177q-42.871-2.6-84.8-5.209a60.351,60.351,0,0,1-1.114-87.1Zm-1.1,187.272,4.2.55a412.157,412.157,0,0,0,56.328,4.789c5.99,0,12.3-.477,18.622-.969-1.317,18.622-3.473,38.068-6.207,58.165-3.574-.188-7.075-.535-10.664-.535a193.788,193.788,0,0,0-64.126,11.04,698.177,698.177,0,0,1,1.823-73.039ZM382.7,512.337,341.3,336a14.469,14.469,0,0,0-28.171,6.6l37.2,158.71a163.873,163.873,0,0,0-31.542-7.857l-63.5-271a68.57,68.57,0,0,0,28.33,6.164c.912,0,1.881-.13,2.807-.174l10.23,43.682a14.469,14.469,0,1,0,28.171-6.6L314.58,221.814a68.522,68.522,0,0,0,25.277-19.244l64.561,276.053A194.124,194.124,0,0,0,382.7,512.337ZM294.294,198.36a48.037,48.037,0,0,1-48.312-19.345l1.838-50.96a85.142,85.142,0,0,0,15.265,1.447,64.471,64.471,0,0,0,14.7-1.635,73.71,73.71,0,0,0,26.825-13.34l24.366,44.97a47.992,47.992,0,0,1-34.682,38.893ZM254.664,29.333a4.514,4.514,0,0,1,4.977,2.228l31.022,57.369A49.373,49.373,0,0,1,271.13,99.783a49.2,49.2,0,0,1-22.3-1.056l2.358-65.2A4.484,4.484,0,0,1,254.664,29.333ZM149.952,318.322l11.054,26.71L107.471,367.2a14.469,14.469,0,0,0,5.571,27.809,14.68,14.68,0,0,0,5.542-1.1l53.535-22.181,11.069,26.739-26.782,11.1a14.469,14.469,0,0,0,5.556,27.838,14.721,14.721,0,0,0,5.527-1.1l26.782-11.1,11.069,26.739-53.579,22.21a14.469,14.469,0,0,0,5.556,27.838,14.659,14.659,0,0,0,5.527-1.1l53.535-22.166,11.705,28.258A167.971,167.971,0,0,0,134.4,621.013L29.527,368.153ZM752.223,839.205H115.588a86.814,86.814,0,1,1,0-173.628,85.23,85.23,0,0,1,24.756,3.588A14.468,14.468,0,0,0,159,655.579a137.455,137.455,0,0,1,219.928-107.2,14.47,14.47,0,0,0,22.181-6.511A166.428,166.428,0,0,1,715.978,649.286a14.469,14.469,0,0,0,16.929,18.4,90.335,90.335,0,0,1,19.316-2.112,86.814,86.814,0,0,1,0,173.628Z" transform="translate(-0.012 0)"/><path class="b" d="M52.073,110.628a14.469,14.469,0,0,0,11.575-5.715A108.522,108.522,0,0,0,82.892,19.72a14.469,14.469,0,1,0-27.954,7.452A80.375,80.375,0,0,1,40.585,87.449,14.469,14.469,0,0,0,52.16,110.6Z" transform="translate(507.483 116.54)"/><path class="b" d="M212.334,72.4A71.123,71.123,0,0,0,181.3,79.638,86.814,86.814,0,0,0,31.327,164.86a14.469,14.469,0,0,0,13.311,8.8,14.314,14.314,0,0,0,5.672-1.158,14.47,14.47,0,0,0,7.64-18.983,58.934,58.934,0,0,1-4.775-23.237A57.877,57.877,0,0,1,111.052,72.4a57.3,57.3,0,0,1,52.305,33.279,15.713,15.713,0,0,0,1.013,1.36,14.7,14.7,0,0,0,.767,1.447c.26.318.637.463.926.767a20.321,20.321,0,0,0,4.558,3.328,14.409,14.409,0,0,0,2.6.81,13.308,13.308,0,0,0,2.72.42,17.779,17.779,0,0,0,5.527-.926,11.031,11.031,0,0,0,1.143-.275,13.1,13.1,0,0,0,1.346-1,15.039,15.039,0,0,0,1.519-.781,42.668,42.668,0,0,1,26.854-9.492A43.406,43.406,0,0,1,251.69,126.59a14.471,14.471,0,1,0,26.334-12.009A72.347,72.347,0,0,0,212.334,72.4Z" transform="translate(328.196 593.174)"/><path class="b" d="M67.3,39.811C65.119,40.52,14,58.2,14,111.418a14.469,14.469,0,1,0,28.938,0,49.744,49.744,0,0,1,33.6-44.174A14.5,14.5,0,1,0,67.3,39.753Z" transform="translate(188.39 525.222)"/><path class="b" d="M41.956,118.38a14.126,14.126,0,0,0,3.516.434,14.469,14.469,0,0,0,14.02-10.953,61.712,61.712,0,0,1,58.4-46.923A14.469,14.469,0,0,0,117.817,32a90.127,90.127,0,0,0-86.38,68.829A14.469,14.469,0,0,0,41.956,118.38Z" transform="translate(417.36 431.012)"/></g></g></svg>