<svg xmlns="http://www.w3.org/2000/svg" width="65.851" height="57.233" viewBox="0 0 65.851 57.233"><defs><style>.a{fill:#0078ff;}</style></defs><g transform="translate(0 -33.5)"><path class="a" d="M0,33.5V90.734H65.851V33.5ZM61.992,48.848H26.834l-4.7-11.49h39.86ZM3.858,86.875V37.358h14.1l6.28,15.348H61.992V86.875Z"/><path class="a" d="M133.615,245.1a3.656,3.656,0,0,1-7.313,0v-15h-3.858v15a7.515,7.515,0,0,0,15.03,0v-15h-3.858Z" transform="translate(-106.696 -171.322)"/><path class="a" d="M277.47,229.318l-5.253,7.879-5.253-7.879-3.21,2.14,6.144,9.217-6.144,9.217,3.21,2.14,5.253-7.879,5.253,7.879,3.21-2.14-6.144-9.217,6.144-9.217Z" transform="translate(-229.831 -170.633)"/><path class="a" d="M422.391,93.392h3.858V97.25h-3.858Z" transform="translate(-368.065 -52.189)"/><path class="a" d="M362.391,93.392h3.858V97.25h-3.858Z" transform="translate(-315.782 -52.189)"/><path class="a" d="M302.391,93.392h3.858V97.25h-3.858Z" transform="translate(-263.499 -52.189)"/></g></svg>